# xmcd CD database file
#
# Track frame offsets:
#	150
#	23823
#	39150
#	60094
#	73937
#	94563
#	118714
#	140400
#	156090
#	174457
#	191992
#	208211
#	228378
#	244766
#	261250
#	277749
#	294555
#	309065
#
# Disc length: 4374 seconds
#
# Revision: 0
# Processed by: cddbd v1.5.1PL0 Copyright (c) Steve Scherf et al.
# Submitted via: CDex 1.51
#
DISCID=f8111412
DTITLE=オムニバス - I LOVE HIPHOP
DYEAR=1900
DGENRE=Hip-Hop
TTITLE0=BOY(I NEED YOU)
TTITLE1=ROCK WIT YOU
TTITLE2=MESMERIZE
TTITLE3=NEVER LEAVE YOU
TTITLE4=PARADISE
TTITLE5=LOVE OF MY LIFE WORLDWIDE
TTITLE6=DILEMMA
TTITLE7=MY LOVE IS LIKE....WO
TTITLE8=MUNDIAN TO BACH KE
TTITLE9=THE TRUTH
TTITLE10=WHEN I GET YOU ALONE
TTITLE11=THE SEED
TTITLE12=DA-NA-MY-TEE
TTITLE13=HEY MA
TTITLE14=X GON' GIVE IT TO YA
TTITLE15=PUMP IT UP
TTITLE16=IN DA CLUB
TTITLE17=BUSINESS
EXTD=
EXTT0=
EXTT1=
EXTT2=
EXTT3=
EXTT4=
EXTT5=
EXTT6=
EXTT7=
EXTT8=
EXTT9=
EXTT10=
EXTT11=
EXTT12=
EXTT13=
EXTT14=
EXTT15=
EXTT16=
EXTT17=
PLAYORDER=
